<svg width="70" height="24" viewBox="0 0 70 24" fill="none" xmlns="http://www.w3.org/2000/svg">
<g clip-path="url(#clip0_418_2)">
<path d="M9.02223 16.08H3.42223V12.16H8.94445C9.8 12.16 10.4222 12 10.8889 11.76C11.4333 11.44 11.7444 11.12 11.9778 10.64C12.2111 10.16 12.3667 9.6 12.3667 8.96C12.3667 8.32 12.2111 7.68 11.9778 7.2C11.7444 6.64 11.3556 6.16 10.8889 5.84C10.4222 5.52 9.72223 5.36 8.94445 5.36H5.21111V24H0.233337V1.28H8.94445C10.7333 1.28 12.2111 1.6 13.4556 2.24C14.7 2.88 15.7111 3.76 16.3333 4.96C17.0333 6.08 17.3444 7.36 17.3444 8.88C17.3444 10.32 17.0333 11.6 16.3333 12.72C15.6333 13.84 14.7 14.64 13.4556 15.28C12.2889 15.76 10.7333 16.08 9.02223 16.08ZM22.6333 0V24H17.8889V0H22.6333ZM22.0111 14.96H20.8444C20.8444 13.76 18.1222 12.4 18.4333 11.36C18.7444 10.4 19.1333 9.52 19.6778 8.72C20.2222 8 20.8444 7.44 21.6222 7.04C21.8556 6.96 21.8556 6.72 22.4 6.72C23.8778 6.72 26.2889 6.72 26.9889 6.72C27.7667 6.72 28.5444 6.8 29.2444 7.04C29.9444 7.28 30.4889 7.68 30.9556 8.16C31.4222 8.72 31.8111 9.36 32.0444 10.24C32.2778 11.12 32.4333 12.08 32.4333 13.28V24H27.6889V13.36C27.6889 12.64 27.6111 12.08 27.3778 11.68C27.2222 11.28 26.9111 10.96 26.5222 10.8C26.1333 10.64 25.7445 10.56 25.2 10.56C24.5778 10.56 24.0333 10.64 23.6444 10.88C23.2556 11.12 22.9444 11.44 22.7111 11.84C22.4778 12.24 22.3222 12.72 22.2444 13.2C22.0889 13.76 22.0111 14.32 22.0111 14.96ZM38.3444 7.12V24H33.6V7.12H38.3444ZM44.5667 0V24H39.8222V0H44.5667ZM50.7889 7.12V24H46.0444V7.12H50.7889ZM61.0556 16.08H55.5333V12.16H61.0556C61.9111 12.16 62.5333 12 63 11.76C63.5444 11.44 63.8556 11.12 64.0889 10.64C64.3222 10.16 64.4778 9.6 64.4778 8.96C64.4778 8.32 64.3222 7.68 64.0889 7.2C63.8556 6.64 63.4667 6.16 63 5.84C62.5333 5.52 61.8333 5.36 61.0556 5.36H57.3222V24H52.3444V1.28H61.0556C62.8444 1.28 64.3222 1.6 65.5667 2.24C66.8111 2.88 67.8222 3.76 68.4444 4.96C69.1444 6.08 69.4556 7.36 69.4556 8.88C69.4556 10.32 69.1444 11.6 68.4444 12.72C67.7444 13.84 66.8111 14.64 65.5667 15.28C64.3222 15.76 62.7667 16.08 61.0556 16.08Z" fill="#212121"/>
<path d="M48.4556 4.8C49.7442 4.8 50.7889 3.72548 50.7889 2.4C50.7889 1.07452 49.7442 0 48.4556 0C47.1669 0 46.1222 1.07452 46.1222 2.4C46.1222 3.72548 47.1669 4.8 48.4556 4.8Z" fill="#FFC700"/>
<path d="M35.9333 4.8C37.222 4.8 38.2667 3.72548 38.2667 2.4C38.2667 1.07452 37.222 0 35.9333 0C34.6447 0 33.6 1.07452 33.6 2.4C33.6 3.72548 34.6447 4.8 35.9333 4.8Z" fill="#E33701"/>
</g>
<defs>
<clipPath id="clip0_418_2">
<rect width="70" height="24" fill="white"/>
</clipPath>
</defs>
</svg>
